PathFileType	4	(X/Y/Z)	/Users/itak/Documents/Research/Walk-IL/dataset/trc/00348_00011.trc
DataRate	CameraRate	NumFrames	NumMarkers	Units	OrigDataRate	OrigDataStartFrame	OrigNumFrames
100.000000	100.000000	4	56	mm	100.000000	82	660
Frame#	Time	RPSI			LPSI			STRN			T10			C7			CLAV			RBAK			LBAK			LSHO			LUPA			LAEL			LAOL			LWTS			LWPS			LFRA			LHPS			LHTS			RSHO			RUPA			RAEL			RAOL			RWTS			RWPS			RFRA			RIFD			RHTS			RHPS			RBHD			LFHD			RFHD			LBHD			LHIP			RHIP			RASI			LASI			LKNE			LTHI			LANK			LTIP			LTOE			LMT1			LMT5			LHEE			RKNE			RANK			RTIP			RTOE			RMT1			RMT5			RHEE			RTHI			L3			LIFD			*53			*54			*55			
		X1	Y1	Z1	X2	Y2	Z2	X3	Y3	Z3	X4	Y4	Z4	X5	Y5	Z5	X6	Y6	Z6	X7	Y7	Z7	X8	Y8	Z8	X9	Y9	Z9	X10	Y10	Z10	X11	Y11	Z11	X12	Y12	Z12	X13	Y13	Z13	X14	Y14	Z14	X15	Y15	Z15	X16	Y16	Z16	X17	Y17	Z17	X18	Y18	Z18	X19	Y19	Z19	X20	Y20	Z20	X21	Y21	Z21	X22	Y22	Z22	X23	Y23	Z23	X24	Y24	Z24	X25	Y25	Z25	X26	Y26	Z26	X27	Y27	Z27	X28	Y28	Z28	X29	Y29	Z29	X30	Y30	Z30	X31	Y31	Z31	X32	Y32	Z32	X33	Y33	Z33	X34	Y34	Z34	X35	Y35	Z35	X36	Y36	Z36	X37	Y37	Z37	X38	Y38	Z38	X39	Y39	Z39	X40	Y40	Z40	X41	Y41	Z41	X42	Y42	Z42	X43	Y43	Z43	X44	Y44	Z44	X45	Y45	Z45	X46	Y46	Z46	X47	Y47	Z47	X48	Y48	Z48	X49	Y49	Z49	X50	Y50	Z50	X51	Y51	Z51	X52	Y52	Z52	X53	Y53	Z53	X54	Y54	Z54	X55	Y55	Z55	X56	Y56	Z56	

83	0.8200000000000001	448.3295288085938	971.3827514648438	1003.461547851562	454.9625244140625	972.8839111328125	1132.376708984375	231.6531677246094	1216.657836914062	1088.078125	466.1022338867188	1144.577026367188	1076.22607421875	432.2327880859375	1393.750854492188	1095.230346679688	275.6691284179688	1341.8369140625	1090.8642578125	474.8456726074219	1253.654296875	1025.756713867188	443.7195129394531	1355.853149414062	1196.772583007812	359.6215209960938	1375.217651367188	1254.486450195312	373.7640991210938	1252.026245117188	1318.340087890625	345.9910583496094	1047.776245117188	1321.029052734375	408.7474670410156	1034.7607421875	1266.044311523438	244.6361236572266	809.2564697265625	1263.20703125	282.9682922363281	794.8458251953125	1319.454467773438	326.8647155761719	944.2247314453125	1322.878540039062	285.3875427246094	723.7445678710938	1309.502319335938	231.9321899414062	729.7103271484375	1274.649047851562	374.4581909179688	1383.12841796875	932.0911865234375	382.6183776855469	1317.974853515625	868.7520141601562	370.2929077148438	1051.795166015625	827.2266845703125	408.3616027832031	1042.468994140625	913.3812866210938	257.0075073242188	823.2220458984375	864.9857788085938	294.6383056640625	809.7688598632812	799.1387329101562	344.8368835449219	984.6771850585938	816.50341796875	247.1018981933594	650.5617065429688	852.686279296875	227.8820190429688	722.9056396484375	847.50830078125	278.69970703125	725.0122680664062	799.4354858398438	389.4277954101562	1599.6552734375	1007.295654296875	210.9703521728516	1609.991088867188	1113.624145507812	227.0574340820312	1604.541381835938	1014.121643066406	393.3555908203125	1604.092163085938	1151.699829101562	374.7579040527344	916.5745849609375	1242.052734375	363.54345703125	911.94189453125	909.2225341796875	261.7066650390625	944.273193359375	947.3055419921875	251.5359954833984	941.0862426757812	1187.146728515625	319.9170532226562	455.0602722167969	1233.16064453125	321.6249694824219	595.57275390625	1240.49267578125	456.3429870605469	46.50443267822266	1222.861206054688	384.6029357910156	242.6833648681641	1237.681884765625	247.9121246337891	47.03911209106445	1171.367309570312	313.7988891601562	29.8511905670166	1127.902465820312	331.0228271484375	48.16779327392578	1239.79248046875	487.2358093261719	38.23960494995117	1153.731567382812	320.9239196777344	454.3113403320312	904.7388305664062	447.4642639160156	53.31562042236328	895.3901977539062	330.877685546875	331.9410400390625	903.1497192382812	254.0889282226562	43.70346450805664	935.0986328125	306.7528686523438	38.1396369934082	979.8574829101562	347.7278137207031	38.74487686157227	869.8377075195312	496.4550476074219	53.93156814575195	944.8403930664062	286.0725402832031	710.31787109375	891.4518432617188	451.8947143554688	1025.847290039062	1063.208740234375	236.0014038085938	657.7197875976562	1242.05810546875	nan	nan	nan	nan	nan	nan	nan	nan	nan	
84	0.8300000000000001	448.026611328125	969.9605102539062	1004.665405273438	453.9704284667969	972.262451171875	1133.692993164062	229.7425079345703	1215.617919921875	1089.345581054688	464.2127990722656	1144.317504882812	1078.298828125	429.6572265625	1393.324951171875	1097.361083984375	273.2765197753906	1340.99853515625	1092.354370117188	473.2316284179688	1253.430297851562	1027.844116210938	440.759765625	1355.452514648438	1198.983154296875	356.3125915527344	1374.672607421875	1256.267578125	370.2492980957031	1251.619018554688	1320.320190429688	342.6726684570312	1047.344970703125	1323.229858398438	406.0374450683594	1034.324096679688	1268.862426757812	242.0992126464844	808.6115112304688	1264.615356445312	279.6719055175781	794.528564453125	1321.264526367188	323.6275024414062	943.7374877929688	1324.988525390625	282.4143676757812	723.191650390625	1311.491577148438	229.4850921630859	729.0501708984375	1275.933471679688	372.6587524414062	1382.621215820312	934.0189208984375	381.2259521484375	1317.461303710938	870.6870727539062	369.337646484375	1051.4248046875	828.734130859375	406.777099609375	1041.894409179688	915.1425170898438	255.5477142333984	822.89794921875	864.8916625976562	293.7730102539062	809.5418701171875	799.357421875	343.9822998046875	984.376953125	817.5908813476562	245.7273101806641	650.162353515625	851.936767578125	226.5502777099609	722.6676635742188	846.8949584960938	277.77734375	724.7888793945312	799.3654174804688	387.2548828125	1598.664916992188	1008.706726074219	208.0739288330078	1609.274291992188	1113.796630859375	224.8401947021484	1603.446655273438	1014.4619140625	390.1958923339844	1603.625854492188	1153.140625	373.8385925292969	916.5887451171875	1243.704467773438	363.8153991699219	910.9345703125	910.60400390625	261.7904968261719	943.1492919921875	948.491455078125	249.28466796875	940.8619995117188	1188.603637695312	319.0181274414062	454.5775756835938	1234.350952148438	320.66796875	595.2863159179688	1241.840209960938	456.2987976074219	46.50205993652344	1222.86767578125	383.9918518066406	242.1266937255859	1238.226806640625	247.8087921142578	46.23583602905273	1171.304809570312	313.7935485839844	29.54942512512207	1127.706909179688	330.7356872558594	47.85953903198242	1239.77978515625	487.2771301269531	38.17469024658203	1153.7802734375	311.023193359375	453.3191223144531	906.785400390625	446.645263671875	55.83523941040039	896.5983276367188	323.5137634277344	331.1181030273438	904.5835571289062	253.7967376708984	43.14717864990234	935.1395263671875	306.2274780273438	37.63597106933594	980.2836303710938	347.5262145996094	39.47048950195312	870.3395385742188	495.3528747558594	57.27268981933594	946.2450561523438	286.014404296875	709.2361450195312	892.8446655273438	451.1989135742188	1025.683471679688	1064.72509765625	233.1678009033203	657.38720703125	1244.20556640625	nan	nan	nan	nan	nan	nan	nan	nan	nan	
85	0.84	447.9067077636719	968.311279296875	1005.880187988281	452.9993896484375	971.5382690429688	1135.034790039062	227.7673797607422	1214.51025390625	1090.373046875	462.2384643554688	1144.08154296875	1080.396484375	426.9426879882812	1392.928588867188	1099.513671875	270.7587890625	1340.130859375	1093.678466796875	471.5730895996094	1253.252319335938	1030.011596679688	437.5721435546875	1355.046630859375	1201.208129882812	352.6919250488281	1374.056396484375	1257.962280273438	366.4207458496094	1251.148193359375	1322.240356445312	339.0720825195312	1046.849975585938	1325.466186523438	403.0716552734375	1033.801391601562	1271.764892578125	239.3587341308594	807.8743896484375	1266.050415039062	276.1162414550781	794.1317138671875	1323.138549804688	320.1141052246094	943.1614379882812	1327.1572265625	279.1730651855469	722.6318359375	1313.623046875	226.7962951660156	728.3427734375	1277.274047851562	370.8916320800781	1382.116943359375	935.8829345703125	379.9872131347656	1316.931274414062	872.5872802734375	368.5145263671875	1051.00390625	830.2620849609375	405.1964721679688	1041.27880859375	916.9590454101562	254.0586700439453	822.6353149414062	864.7619018554688	292.9397888183594	809.3070678710938	799.6104736328125	343.2414855957031	984.0517578125	818.6783447265625	244.1562194824219	649.8408813476562	851.1666870117188	225.1074523925781	722.5029296875	846.2118530273438	276.8128051757812	724.5765380859375	799.2830200195312	384.9790649414062	1597.734497070312	1010.109375	205.021728515625	1608.552734375	1113.92041015625	222.4954986572266	1602.396484375	1014.757385253906	386.8530883789062	1603.154418945312	1154.58544921875	372.9158935546875	916.8080444335938	1245.467529296875	364.2076110839844	909.8275146484375	911.6995239257812	261.9899597167969	941.925048828125	949.3855590820312	247.1696624755859	940.5554809570312	1189.647705078125	318.1397094726562	454.0737915039062	1235.360961914062	319.71044921875	594.9718017578125	1243.120239257812	456.2644653320312	46.55185699462891	1222.817504882812	383.4163513183594	241.5885620117188	1238.666259765625	247.7050933837891	45.55601119995117	1171.231201171875	313.7641906738281	29.29962539672852	1127.511352539062	330.4833374023438	47.60037994384766	1239.727416992188	487.3118286132812	38.10847473144531	1153.779174804688	300.4161682128906	452.4540100097656	908.5363159179688	445.7067260742188	59.07386779785156	898.09228515625	315.6726989746094	330.6908569335938	906.0379028320312	253.5273742675781	42.69083404541016	935.1552124023438	305.6256408691406	37.23786544799805	980.7343139648438	347.381591796875	40.52480697631836	870.9521484375	493.9981079101562	61.5283203125	947.9957885742188	282.1976013183594	708.0410766601562	894.3070068359375	450.6214294433594	1025.552856445312	1066.318603515625	230.0359039306641	657.078857421875	1246.510620117188	nan	nan	nan	nan	nan	nan	nan	nan	nan	
86	0.85	447.9454650878906	966.457275390625	1007.11669921875	452.0347900390625	970.708740234375	1136.407470703125	225.7255249023438	1213.371826171875	1091.14599609375	460.2019653320312	1143.893432617188	1082.507568359375	424.0924072265625	1392.590942382812	1101.6689453125	268.12109375	1339.25927734375	1094.805908203125	469.865478515625	1253.145629882812	1032.250732421875	434.1522827148438	1354.658325195312	1203.425537109375	348.7554626464844	1373.3876953125	1259.54931640625	362.2774353027344	1250.624145507812	1324.071533203125	335.1962280273438	1046.29248046875	1327.699951171875	399.8420715332031	1033.199829101562	1274.706176757812	236.4097137451172	807.0650024414062	1267.504028320312	272.3485412597656	793.6419677734375	1325.047241210938	316.3386840820312	942.5098876953125	1329.348876953125	275.7033081054688	722.0650024414062	1315.839477539062	223.85400390625	727.5943603515625	1278.664672851562	369.1585998535156	1381.6328125	937.6581420898438	378.8995666503906	1316.401245117188	874.4351806640625	367.8185424804688	1050.544311523438	831.7933349609375	403.6229858398438	1040.649658203125	918.8008422851562	252.5511474609375	822.4391479492188	864.6044311523438	292.1451721191406	809.0807495117188	799.8993530273438	342.6202697753906	983.7059936523438	819.75732421875	242.3939208984375	649.6249389648438	850.4076538085938	223.5644989013672	722.4118041992188	845.4859008789062	275.8145446777344	724.3832397460938	799.20263671875	382.6026611328125	1596.899047851562	1011.471801757812	201.8101654052734	1607.848388671875	1113.991455078125	220.0206298828125	1601.420166015625	1014.995361328125	383.3328247070312	1602.698120117188	1156.023193359375	372.0098266601562	917.2443237304688	1247.364624023438	364.6766052246094	908.6959228515625	912.49951171875	262.2632446289062	940.6763305664062	949.984375	245.2473602294922	940.1676635742188	1190.236450195312	317.2777404785156	453.5820007324219	1236.159301757812	318.714599609375	594.6383056640625	1244.265014648438	456.2410888671875	46.64153671264648	1222.725708007812	382.8774719238281	241.0849761962891	1238.997924804688	247.6056518554688	45.02545547485352	1171.162963867188	313.7242736816406	29.114501953125	1127.336181640625	330.2794799804688	47.3929328918457	1239.647705078125	487.3407897949219	38.04412078857422	1153.741333007812	289.2735900878906	451.8817749023438	909.977783203125	444.5986022949219	63.04492950439453	899.8960571289062	307.4098510742188	330.7750244140625	907.49853515625	253.2469635009766	42.34673309326172	935.1799926757812	304.8994445800781	36.97963714599609	981.231689453125	347.2579650878906	41.96777725219727	871.7068481445312	492.3295288085938	66.6817626953125	950.122802734375	278.1441650390625	707.0383911132812	895.7621459960938	450.1634826660156	1025.476928710938	1068.015014648438	226.6319274902344	656.768798828125	1248.9072265625	nan	nan	nan	nan	nan	nan	nan	nan	nan	
